<?xml version="1.0" encoding="UTF-8" standalone="no"?>
<svg
   xmlns:dc="http://purl.org/dc/elements/1.1/"
   xmlns:cc="http://creativecommons.org/ns#"
   xmlns:rdf="http://www.w3.org/1999/02/22-rdf-syntax-ns#"
   xmlns:svg="http://www.w3.org/2000/svg"
   xmlns="http://www.w3.org/2000/svg"
   xmlns:xlink="http://www.w3.org/1999/xlink"
   xmlns:sodipodi="http://sodipodi.sourceforge.net/DTD/sodipodi-0.dtd"
   xmlns:inkscape="http://www.inkscape.org/namespaces/inkscape"
   viewBox="0 0 1005 1005"
   version="1.1"
   id="svg272"
   sodipodi:docname="adze-159545.svg"
   width="1005"
   height="1005"
   inkscape:version="0.92.5 (2060ec1f9f, 2020-04-08)">
  <metadata
     id="metadata276">
    <rdf:RDF>
      <cc:Work
         rdf:about="">
        <dc:format>image/svg+xml</dc:format>
        <dc:type
           rdf:resource="http://purl.org/dc/dcmitype/StillImage" />
        <dc:title></dc:title>
      </cc:Work>
    </rdf:RDF>
  </metadata>
  <sodipodi:namedview
     pagecolor="#ffffff"
     bordercolor="#666666"
     borderopacity="1"
     objecttolerance="10"
     gridtolerance="10"
     guidetolerance="10"
     inkscape:pageopacity="0"
     inkscape:pageshadow="2"
     inkscape:window-width="1636"
     inkscape:window-height="936"
     id="namedview274"
     showgrid="false"
     fit-margin-top="10"
     fit-margin-left="10"
     fit-margin-right="10"
     fit-margin-bottom="10"
     inkscape:zoom="0.4277996"
     inkscape:cx="75.709865"
     inkscape:cy="483.58795"
     inkscape:window-x="680"
     inkscape:window-y="359"
     inkscape:window-maximized="0"
     inkscape:current-layer="svg272" />
  <defs
     id="defs224">
    <filter
       id="p">
      <feGaussianBlur
         stdDeviation="1.6433"
         id="feGaussianBlur144" />
    </filter>
    <filter
       id="o">
      <feGaussianBlur
         stdDeviation=".6759"
         id="feGaussianBlur147" />
    </filter>
    <filter
       id="n"
       x="-0.050900001"
       y="-0.40202001"
       width="1.1018"
       height="1.804">
      <feGaussianBlur
         stdDeviation="22.2105"
         id="feGaussianBlur150" />
    </filter>
    <linearGradient
       id="b">
      <stop
         stop-color="#fff"
         offset="0"
         id="stop153" />
      <stop
         stop-color="#fff"
         stop-opacity="0"
         offset="1"
         id="stop155" />
    </linearGradient>
    <linearGradient
       id="c">
      <stop
         stop-color="#fea"
         offset="0"
         id="stop158" />
      <stop
         stop-color="#fea"
         stop-opacity="0"
         offset="1"
         id="stop160" />
    </linearGradient>
    <linearGradient
       id="m"
       x2="0"
       y1="700.92999"
       y2="600.92999"
       gradientUnits="userSpaceOnUse">
      <stop
         stop-color="#d4aa00"
         offset="0"
         id="stop163" />
      <stop
         stop-color="#d4aa00"
         stop-opacity="0"
         offset="1"
         id="stop165" />
    </linearGradient>
    <linearGradient
       id="k"
       x1="231"
       x2="230.53"
       y1="966.84003"
       y2="837.09003"
       gradientUnits="userSpaceOnUse">
      <stop
         offset="0"
         id="stop168" />
      <stop
         stop-color="#5d5d5d"
         offset=".2405"
         id="stop170" />
      <stop
         stop-color="#9f9f9f"
         offset=".4414"
         id="stop172" />
      <stop
         stop-color="#aeaeae"
         offset=".5789"
         id="stop174" />
      <stop
         offset=".806"
         id="stop176" />
      <stop
         stop-color="#b3a9a9"
         offset="1"
         id="stop178" />
    </linearGradient>
    <linearGradient
       id="j"
       x1="172.85001"
       x2="376.57999"
       y1="800.96002"
       y2="588.12"
       gradientUnits="userSpaceOnUse">
      <stop
         stop-color="#333"
         offset="0"
         id="stop181" />
      <stop
         stop-color="#333"
         stop-opacity="0"
         offset="1"
         id="stop183" />
    </linearGradient>
    <linearGradient
       id="i"
       x1="135.86"
       x2="187.64999"
       y1="987.23999"
       y2="592.29999"
       gradientUnits="userSpaceOnUse">
      <stop
         offset="0"
         id="stop186" />
      <stop
         stop-color="#5d5d5d"
         offset=".1616"
         id="stop188" />
      <stop
         stop-color="#9f9f9f"
         offset=".2308"
         id="stop190" />
      <stop
         stop-color="#aeaeae"
         offset=".2719"
         id="stop192" />
      <stop
         offset=".297"
         id="stop194" />
      <stop
         stop-color="#b3a9a9"
         offset="1"
         id="stop196" />
    </linearGradient>
    <linearGradient
       id="h"
       x1="-119.29"
       x2="-142.5"
       y1="306.29001"
       y2="326.64999"
       gradientUnits="userSpaceOnUse">
      <stop
         stop-color="#4d4d4d"
         offset="0"
         id="stop199" />
      <stop
         stop-color="#4d4d4d"
         stop-opacity="0"
         offset="1"
         id="stop201" />
    </linearGradient>
    <linearGradient
       id="f"
       x1="184.23"
       x2="203.58"
       y1="761.12"
       y2="774.21002"
       gradientUnits="userSpaceOnUse">
      <stop
         offset="0"
         id="stop204" />
      <stop
         stop-opacity="0"
         offset="1"
         id="stop206" />
    </linearGradient>
    <linearGradient
       id="l"
       x1="344.29001"
       x2="345.70999"
       y1="538.08002"
       y2="628.08002"
       gradientUnits="userSpaceOnUse"
       xlink:href="#c" />
    <linearGradient
       id="g"
       x1="338.39999"
       x2="255.06"
       y1="622.02002"
       y2="686.20001"
       gradientUnits="userSpaceOnUse"
       xlink:href="#b" />
    <radialGradient
       id="d"
       cx="-388.64001"
       cy="626.78998"
       r="63"
       gradientTransform="matrix(0.82266,0.21421,-0.41365,1.5886,667.59,1.086)"
       gradientUnits="userSpaceOnUse">
      <stop
         stop-color="#666"
         offset="0"
         id="stop211" />
      <stop
         offset=".6581"
         id="stop213" />
      <stop
         stop-color="#202020"
         offset=".6581"
         id="stop215" />
      <stop
         stop-color="#2c2c2c"
         offset=".884"
         id="stop217" />
      <stop
         stop-color="#666"
         offset="1"
         id="stop219" />
    </radialGradient>
    <radialGradient
       id="e"
       cx="403.95999"
       cy="617.06"
       r="601.95001"
       gradientTransform="matrix(1.1748,7.4995e-4,-3.6141e-5,0.05661,-70.577,581.82)"
       gradientUnits="userSpaceOnUse"
       xlink:href="#b" />
    <radialGradient
       id="a"
       cx="-413.66"
       cy="614.21002"
       r="27.778999"
       gradientTransform="matrix(1,0,0,2.5,0,-921.31)"
       gradientUnits="userSpaceOnUse"
       xlink:href="#c" />
    <radialGradient
       inkscape:collect="always"
       xlink:href="#c"
       id="radialGradient3981"
       gradientUnits="userSpaceOnUse"
       gradientTransform="matrix(1,0,0,2.5,0,-921.31)"
       cx="-413.66"
       cy="614.21002"
       r="27.778999" />
    <radialGradient
       inkscape:collect="always"
       xlink:href="#c"
       id="radialGradient3983"
       gradientUnits="userSpaceOnUse"
       gradientTransform="matrix(1,0,0,2.5,0,-921.31)"
       cx="-413.66"
       cy="614.21002"
       r="27.778999" />
    <radialGradient
       inkscape:collect="always"
       xlink:href="#c"
       id="radialGradient3985"
       gradientUnits="userSpaceOnUse"
       gradientTransform="matrix(1,0,0,2.5,0,-921.31)"
       cx="-413.66"
       cy="614.21002"
       r="27.778999" />
  </defs>
  <g
     transform="rotate(45,1070.3704,544.01507)"
     id="g270">
    <path
       transform="matrix(1.0367,0.01397,-0.00407,0.30227,-80.628,683.03)"
       d="m 205.11,879.12 -17.5,19.094 -13.969,12.938 -6.25,42.031 0.53125,1.5938 -0.53125,4 11.312,37.562 12.938,15.375 10.781,-2.8437 c 27.058,-7.0047 49.468,-7.8462 76,-5.125 0.25093,-1.1458 0.52062,-2.2909 0.78125,-3.4375 1.7913,0.2227 3.5805,0.4653 5.4062,0.7187 0.5345,-2.1498 1.117,-4.2865 1.6875,-6.4375 296.93,-27.279 591.63,-3.5895 918.84005,-14.062 15.029,-27.475 9.1403,-50.508 3.2187,-73.531 -136.7,2.3486 -269.04005,5.686 -397.91005,6.5 -9.9127,0.0626 -19.816,0.0939 -29.688,0.125 -173.86,0.54799 -341.44,-4.0333 -504.84,-22.5 -1.7159,-1.7903 -3.5534,-3.5622 -5.5312,-5.3438 -0.52999,0.0633 -1.0131,0.0964 -1.5312,0.15625 -1.2395,-1.3277 -2.5323,-2.6532 -3.9062,-3.9688 -26.581,4.9758 -37.218,4.0033 -59.844,-2.8438 z"
       id="path226"
       inkscape:connector-curvature="0"
       style="fill:#666666;filter:url(#n)" />
    <g
       transform="matrix(0.9976,0.06919,-0.06919,0.9976,57.522,-40.955)"
       id="g268">
      <g
         transform="matrix(0.79671,0,0,0.79671,397.07,417.79)"
         id="g236">
        <path
           d="m -185.87,549.45 c 372.24,43.517 761.56,28.719 1183.9,21.463 7.4326,28.898 14.823,57.805 -4.0406,92.29 -424.91,13.6 -806.15,-18.668 -1192,21.463 z"
           id="path228"
           inkscape:connector-curvature="0"
           style="fill:#ffcc00" />
        <path
           d="m -185.87,549.45 c 372.24,43.517 761.56,28.719 1183.9,21.463 7.4326,28.898 14.823,57.805 -4.0406,92.29 -424.91,13.6 -806.15,-18.668 -1192,21.463 z"
           id="path230"
           inkscape:connector-curvature="0"
           style="fill:url(#m)" />
        <path
           d="m -185.87,549.45 c 372.24,43.517 761.56,28.719 1183.9,21.463 7.4326,28.898 14.823,57.805 -4.0406,92.29 -424.91,13.6 -806.15,-18.668 -1192,21.463 z"
           id="path232"
           inkscape:connector-curvature="0"
           style="fill:url(#l)" />
        <path
           d="m -185.87,549.45 c 372.24,43.517 761.56,28.719 1183.9,21.463 7.4326,28.898 14.823,57.805 -4.0406,92.29 -424.91,13.6 -806.15,-18.668 -1192,21.463 z"
           id="path234"
           inkscape:connector-curvature="0"
           style="fill:url(#e)" />
      </g>
      <path
         transform="matrix(0.79671,0.03777,0,0.74968,397.07,453.74)"
         d="m -262.14,698.79 c 35.857,-8.7919 65.555,-9.844 100.71,-6.4286 12.14,-52.503 33.988,-105.84 -17.857,-152.86 -35.224,6.2454 -49.302,5.0227 -79.286,-3.5714 l -42.143,43.571 -7.8571,56.429 15,47.143 17.143,19.286 z"
         id="path238"
         inkscape:connector-curvature="0"
         style="filter:url(#p)" />
      <path
         d="m 186.26,974.53 c 27.058,-7.0046 49.469,-7.8429 76.001,-5.1217 9.161,-41.83 25.648,-84.323 -13.475,-121.78 -26.581,4.9758 -37.205,4.0016 -59.831,-2.8454 l -31.802,34.714 -5.9292,44.957 11.319,37.559 12.936,15.365 z"
         id="path240"
         inkscape:connector-curvature="0"
         style="fill:url(#k)" />
      <path
         d="m 75.018,1020.9 c 35.866,-36.661 62.655,-80.632 66.628,-142.98 l 215.18,-199.59 -66.334,-78.871 -208.71,214.08 c -25.953,37.854 -38.808,85.673 -38.83,143.25 8.1768,27.198 19.32,47.51 32.064,64.108 z"
         id="path242"
         inkscape:connector-curvature="0"
         style="fill:url(#j)" />
      <path
         d="m 213.65,729.21 c -6.5197,0.0186 -13.963,2.5204 -20.54,7.2949 -10.377,7.5329 -15.775,18.526 -14.117,27.038 l -34.632,40.383 4.4317,4.0334 47.902,-32.765 c 6.1303,-0.31891 12.992,-2.7485 19.221,-7.27 12.808,-9.2973 18.096,-23.869 11.801,-32.541 l -3.6848,-3.4607 c -2.8843,-1.8504 -6.4704,-2.725 -10.382,-2.7138 z"
         id="path244"
         inkscape:connector-curvature="0"
         style="fill:#fff6d5" />
      <path
         d="m 78.923,818.99 c -24.026,37.118 -35.949,83.301 -35.97,138.41 8.3354,27.307 19.689,47.702 32.679,64.366 36.022,-36.264 63.042,-79.668 67.706,-140.81 -10.892,-27.147 -34.13,-55.044 -64.415,-61.966 z"
         id="path246"
         inkscape:connector-curvature="0"
         style="fill:url(#d)" />
      <path
         transform="matrix(1.0292,0.2428,-0.18293,0.77543,622.9,532.91)"
         d="m -385.88,614.21 c 0,38.355 -12.437,69.448 -27.779,69.448 -15.342,0 -27.779,-31.093 -27.779,-69.448 0,-38.355 12.437,-69.448 27.779,-69.448 12.606,0 23.632,21.22 26.855,51.687"
         id="path248"
         inkscape:connector-curvature="0"
         style="fill:#806600" />
      <path
         transform="matrix(0.80787,0.23015,-0.14359,0.73503,501.03,549.69)"
         d="m -385.88,614.21 c 0,38.355 -12.437,69.448 -27.779,69.448 -15.342,0 -27.779,-31.093 -27.779,-69.448 0,-38.355 12.437,-69.448 27.779,-69.448 12.606,0 23.632,21.22 26.855,51.687"
         id="path250"
         inkscape:connector-curvature="0"
         style="fill:#ffcc00" />
      <path
         d="m 356.09,678.6 -195.19,206.58 -0.56908,29.592 c 3.9867,20.893 4.1677,42.33 28.454,60.323 -5.0233,17.006 -12.32,33.038 -27.885,45.527 -29.766,4.5049 -58.62,6.2739 -85.362,1.7072 37.155,-38.928 61.631,-85.348 65.444,-143.98 z"
         id="path252"
         inkscape:connector-curvature="0"
         style="fill:url(#i)" />
      <path
         transform="matrix(0.80787,0.23015,-0.14359,0.73503,501.03,549.69)"
         d="m -385.88,614.21 c 0,38.355 -12.437,69.448 -27.779,69.448 -15.342,0 -27.779,-31.093 -27.779,-69.448 0,-38.355 12.437,-69.448 27.779,-69.448 12.606,0 23.632,21.22 26.855,51.687"
         id="path254"
         inkscape:connector-curvature="0"
         style="fill:url(#radialGradient3981)" />
      <path
         transform="matrix(0.78325,0,0,0.79114,395.9,419.81)"
         d="m -168.44,262.16 -1.1875,1.2188 c 15.997,52.395 47.744,76.315 80.594,97.719 l 0.71875,-0.6875 c -35.069,-26.375 -63.449,-56.654 -80.125,-98.25 z"
         id="path256"
         inkscape:connector-curvature="0"
         style="fill:url(#h);filter:url(#o)" />
      <path
         d="m 290.72,599.49 -27.371,27.832 c 12.784,41.296 38.154,60.148 64.406,77.018 l 29.169,-26.822 z"
         id="path258"
         inkscape:connector-curvature="0"
         style="fill:url(#g)" />
      <path
         d="m 213.65,729.21 c -6.5197,0.0186 -13.963,2.5204 -20.54,7.2949 -10.377,7.5329 -15.775,18.526 -14.117,27.038 l -34.632,40.383 4.4317,4.0334 9.7099,-6.6476 29.155,-33.935 c 0.4941,-27.52 22.107,-29.989 40.284,-31.644 -0.0786,-0.11571 -0.14155,-0.23486 -0.22408,-0.34856 l -3.6848,-3.4607 c -2.8843,-1.8504 -6.4704,-2.725 -10.382,-2.7138 z"
         id="path260"
         inkscape:connector-curvature="0"
         style="fill:url(#f)" />
      <path
         transform="matrix(0.80787,0.23015,-0.14359,0.73503,501.03,549.69)"
         d="m -385.88,614.21 c 0,38.355 -12.437,69.448 -27.779,69.448 -15.342,0 -27.779,-31.093 -27.779,-69.448 0,-38.355 12.437,-69.448 27.779,-69.448 12.606,0 23.632,21.22 26.855,51.687"
         id="path262"
         inkscape:connector-curvature="0"
         style="fill:url(#radialGradient3983)" />
      <path
         transform="matrix(0.80787,0.23015,-0.14359,0.73503,501.03,549.69)"
         d="m -385.88,614.21 c 0,38.355 -12.437,69.448 -27.779,69.448 -15.342,0 -27.779,-31.093 -27.779,-69.448 0,-38.355 12.437,-69.448 27.779,-69.448 12.606,0 23.632,21.22 26.855,51.687"
         id="path264"
         inkscape:connector-curvature="0"
         style="fill:url(#radialGradient3985)" />
      <path
         transform="matrix(0.80787,0.23015,-0.14359,0.73503,501.03,549.69)"
         d="m -385.88,614.21 c 0,38.355 -12.437,69.448 -27.779,69.448 -15.342,0 -27.779,-31.093 -27.779,-69.448 0,-38.355 12.437,-69.448 27.779,-69.448 12.606,0 23.632,21.22 26.855,51.687"
         id="path266"
         inkscape:connector-curvature="0"
         style="fill:url(#a)" />
    </g>
  </g>
  <path
     style="fill:#ffffff;stroke:#000000;stroke-width:0.82644629"
     d="m 328.89881,80.338414 c -5.0302,-1.31481 -9.33234,-3.51267 -15.33975,-7.8367 -1.60647,-1.15631 -9.56457,-3.63077 -21.80384,-6.7796 l -19.27401,-4.95867 19.73772,-0.50067 19.73773,-0.50067 4.86614,-2.98529 c 6.77133,-4.15407 9.70931,-4.95424 16.5732,-4.51374 4.59003,0.29457 7.03017,0.97002 10.83729,2.99983 5.96226,3.17885 17.19023,12.43344 17.58752,14.49642 0.18081,0.93888 -1.21285,2.93853 -3.75734,5.3911 -6.64355,6.40352 -17.27736,8.29513 -29.16466,5.18799 z"
     id="path3987"
     inkscape:connector-curvature="0" />
</svg>
