<?xml version="1.0" encoding="UTF-8"?>
<svg viewBox="0 0 1250 500" xmlns="http://www.w3.org/2000/svg" xmlns:xlink="http://www.w3.org/1999/xlink">
 <defs>
  <filter id="p">
   <feGaussianBlur stdDeviation="1.6433"/>
  </filter>
  <filter id="o">
   <feGaussianBlur stdDeviation=".6759"/>
  </filter>
  <filter id="n" x="-.0509" y="-.40202" width="1.1018" height="1.804">
   <feGaussianBlur stdDeviation="22.2105"/>
  </filter>
  <linearGradient id="b">
   <stop stop-color="#fff" offset="0"/>
   <stop stop-color="#fff" stop-opacity="0" offset="1"/>
  </linearGradient>
  <linearGradient id="c">
   <stop stop-color="#fea" offset="0"/>
   <stop stop-color="#fea" stop-opacity="0" offset="1"/>
  </linearGradient>
  <linearGradient id="m" x2="0" y1="700.93" y2="600.93" gradientUnits="userSpaceOnUse">
   <stop stop-color="#d4aa00" offset="0"/>
   <stop stop-color="#d4aa00" stop-opacity="0" offset="1"/>
  </linearGradient>
  <linearGradient id="k" x1="231" x2="230.53" y1="966.84" y2="837.09" gradientUnits="userSpaceOnUse">
   <stop offset="0"/>
   <stop stop-color="#5d5d5d" offset=".2405"/>
   <stop stop-color="#9f9f9f" offset=".4414"/>
   <stop stop-color="#aeaeae" offset=".5789"/>
   <stop offset=".806"/>
   <stop stop-color="#b3a9a9" offset="1"/>
  </linearGradient>
  <linearGradient id="j" x1="172.85" x2="376.58" y1="800.96" y2="588.12" gradientUnits="userSpaceOnUse">
   <stop stop-color="#333" offset="0"/>
   <stop stop-color="#333" stop-opacity="0" offset="1"/>
  </linearGradient>
  <linearGradient id="i" x1="135.86" x2="187.65" y1="987.24" y2="592.3" gradientUnits="userSpaceOnUse">
   <stop offset="0"/>
   <stop stop-color="#5d5d5d" offset=".1616"/>
   <stop stop-color="#9f9f9f" offset=".2308"/>
   <stop stop-color="#aeaeae" offset=".2719"/>
   <stop offset=".297"/>
   <stop stop-color="#b3a9a9" offset="1"/>
  </linearGradient>
  <linearGradient id="h" x1="-119.29" x2="-142.5" y1="306.29" y2="326.65" gradientUnits="userSpaceOnUse">
   <stop stop-color="#4d4d4d" offset="0"/>
   <stop stop-color="#4d4d4d" stop-opacity="0" offset="1"/>
  </linearGradient>
  <linearGradient id="f" x1="184.23" x2="203.58" y1="761.12" y2="774.21" gradientUnits="userSpaceOnUse">
   <stop offset="0"/>
   <stop stop-opacity="0" offset="1"/>
  </linearGradient>
  <linearGradient id="l" x1="344.29" x2="345.71" y1="538.08" y2="628.08" gradientUnits="userSpaceOnUse" xlink:href="#c"/>
  <linearGradient id="g" x1="338.4" x2="255.06" y1="622.02" y2="686.2" gradientUnits="userSpaceOnUse" xlink:href="#b"/>
  <radialGradient id="d" cx="-388.64" cy="626.79" r="63" gradientTransform="matrix(.82266 .21421 -.41365 1.5886 667.59 1.086)" gradientUnits="userSpaceOnUse">
   <stop stop-color="#666" offset="0"/>
   <stop offset=".6581"/>
   <stop stop-color="#202020" offset=".6581"/>
   <stop stop-color="#2c2c2c" offset=".884"/>
   <stop stop-color="#666" offset="1"/>
  </radialGradient>
  <radialGradient id="e" cx="403.96" cy="617.06" r="601.95" gradientTransform="matrix(1.1748 .00074995 -3.6141e-5 .05661 -70.577 581.82)" gradientUnits="userSpaceOnUse" xlink:href="#b"/>
  <radialGradient id="a" cx="-413.66" cy="614.21" r="27.779" gradientTransform="matrix(1 0 0 2.5 0 -921.31)" gradientUnits="userSpaceOnUse" xlink:href="#c"/>
 </defs>
 <g transform="translate(0 -552.36)">
  <path transform="matrix(1.0367 .01397 -.00407 .30227 -80.628 683.03)" d="m205.11 879.12-17.5 19.094-13.969 12.938-6.25 42.031 0.53125 1.5938-0.53125 4 11.312 37.562 12.938 15.375 10.781-2.8437c27.058-7.0047 49.468-7.8462 76-5.125 0.25093-1.1458 0.52062-2.2909 0.78125-3.4375 1.7913 0.2227 3.5805 0.4653 5.4062 0.7187 0.5345-2.1498 1.117-4.2865 1.6875-6.4375 296.93-27.279 591.63-3.5895 918.84-14.062 15.029-27.475 9.1403-50.508 3.2187-73.531-136.7 2.3486-269.04 5.686-397.91 6.5-9.9127 0.0626-19.816 0.0939-29.688 0.125-173.86 0.54799-341.44-4.0333-504.84-22.5-1.7159-1.7903-3.5534-3.5622-5.5312-5.3438-0.52999 0.0633-1.0131 0.0964-1.5312 0.15625-1.2395-1.3277-2.5323-2.6532-3.9062-3.9688-26.581 4.9758-37.218 4.0033-59.844-2.8438z" fill="#666" filter="url(#n)"/>
  <g transform="matrix(.9976 .06919 -.06919 .9976 57.522 -40.955)">
   <g transform="matrix(.79671 0 0 .79671 397.07 417.79)">
    <path d="m-185.87 549.45c372.24 43.517 761.56 28.719 1183.9 21.463 7.4326 28.898 14.823 57.805-4.0406 92.29-424.91 13.6-806.15-18.668-1192 21.463z" fill="#fc0"/>
    <path d="m-185.87 549.45c372.24 43.517 761.56 28.719 1183.9 21.463 7.4326 28.898 14.823 57.805-4.0406 92.29-424.91 13.6-806.15-18.668-1192 21.463z" fill="url(#m)"/>
    <path d="m-185.87 549.45c372.24 43.517 761.56 28.719 1183.9 21.463 7.4326 28.898 14.823 57.805-4.0406 92.29-424.91 13.6-806.15-18.668-1192 21.463z" fill="url(#l)"/>
    <path d="m-185.87 549.45c372.24 43.517 761.56 28.719 1183.9 21.463 7.4326 28.898 14.823 57.805-4.0406 92.29-424.91 13.6-806.15-18.668-1192 21.463z" fill="url(#e)"/>
   </g>
   <path transform="matrix(.79671 .03777 0 .74968 397.07 453.74)" d="m-262.14 698.79c35.857-8.7919 65.555-9.844 100.71-6.4286 12.14-52.503 33.988-105.84-17.857-152.86-35.224 6.2454-49.302 5.0227-79.286-3.5714l-42.143 43.571-7.8571 56.429 15 47.143 17.143 19.286z" filter="url(#p)"/>
   <path d="m186.26 974.53c27.058-7.0046 49.469-7.8429 76.001-5.1217 9.161-41.83 25.648-84.323-13.475-121.78-26.581 4.9758-37.205 4.0016-59.831-2.8454l-31.802 34.714-5.9292 44.957 11.319 37.559 12.936 15.365z" fill="url(#k)"/>
   <path d="m75.018 1020.9c35.866-36.661 62.655-80.632 66.628-142.98l215.18-199.59-66.334-78.871-208.71 214.08c-25.953 37.854-38.808 85.673-38.83 143.25 8.1768 27.198 19.32 47.51 32.064 64.108z" fill="url(#j)"/>
   <path d="m213.65 729.21c-6.5197 0.0186-13.963 2.5204-20.54 7.2949-10.377 7.5329-15.775 18.526-14.117 27.038l-34.632 40.383 4.4317 4.0334 47.902-32.765c6.1303-0.31891 12.992-2.7485 19.221-7.27 12.808-9.2973 18.096-23.869 11.801-32.541l-3.6848-3.4607c-2.8843-1.8504-6.4704-2.725-10.382-2.7138z" fill="#fff6d5"/>
   <path d="m78.923 818.99c-24.026 37.118-35.949 83.301-35.97 138.41 8.3354 27.307 19.689 47.702 32.679 64.366 36.022-36.264 63.042-79.668 67.706-140.81-10.892-27.147-34.13-55.044-64.415-61.966z" fill="url(#d)"/>
   <path transform="matrix(1.0292 .2428 -.18293 .77543 622.9 532.91)" d="m-385.88 614.21c0 38.355-12.437 69.448-27.779 69.448s-27.779-31.093-27.779-69.448 12.437-69.448 27.779-69.448c12.606 0 23.632 21.22 26.855 51.687" fill="#806600"/>
   <path transform="matrix(.80787 .23015 -.14359 .73503 501.03 549.69)" d="m-385.88 614.21c0 38.355-12.437 69.448-27.779 69.448s-27.779-31.093-27.779-69.448 12.437-69.448 27.779-69.448c12.606 0 23.632 21.22 26.855 51.687" fill="#fc0"/>
   <path d="m356.09 678.6-195.19 206.58-0.56908 29.592c3.9867 20.893 4.1677 42.33 28.454 60.323-5.0233 17.006-12.32 33.038-27.885 45.527-29.766 4.5049-58.62 6.2739-85.362 1.7072 37.155-38.928 61.631-85.348 65.444-143.98z" fill="url(#i)"/>
   <path transform="matrix(.80787 .23015 -.14359 .73503 501.03 549.69)" d="m-385.88 614.21c0 38.355-12.437 69.448-27.779 69.448s-27.779-31.093-27.779-69.448 12.437-69.448 27.779-69.448c12.606 0 23.632 21.22 26.855 51.687" fill="url(#a)"/>
   <path transform="matrix(.78325 0 0 .79114 395.9 419.81)" d="m-168.44 262.16-1.1875 1.2188c15.997 52.395 47.744 76.315 80.594 97.719l0.71875-0.6875c-35.069-26.375-63.449-56.654-80.125-98.25z" fill="url(#h)" filter="url(#o)"/>
   <path d="m290.72 599.49-27.371 27.832c12.784 41.296 38.154 60.148 64.406 77.018l29.169-26.822-66.204-78.028z" fill="url(#g)"/>
   <path d="m213.65 729.21c-6.5197 0.0186-13.963 2.5204-20.54 7.2949-10.377 7.5329-15.775 18.526-14.117 27.038l-34.632 40.383 4.4317 4.0334 9.7099-6.6476 29.155-33.935c0.4941-27.52 22.107-29.989 40.284-31.644-0.0786-0.11571-0.14155-0.23486-0.22408-0.34856l-3.6848-3.4607c-2.8843-1.8504-6.4704-2.725-10.382-2.7138z" fill="url(#f)"/>
   <path transform="matrix(.80787 .23015 -.14359 .73503 501.03 549.69)" d="m-385.88 614.21c0 38.355-12.437 69.448-27.779 69.448s-27.779-31.093-27.779-69.448 12.437-69.448 27.779-69.448c12.606 0 23.632 21.22 26.855 51.687" fill="url(#a)"/>
   <path transform="matrix(.80787 .23015 -.14359 .73503 501.03 549.69)" d="m-385.88 614.21c0 38.355-12.437 69.448-27.779 69.448s-27.779-31.093-27.779-69.448 12.437-69.448 27.779-69.448c12.606 0 23.632 21.22 26.855 51.687" fill="url(#a)"/>
   <path transform="matrix(.80787 .23015 -.14359 .73503 501.03 549.69)" d="m-385.88 614.21c0 38.355-12.437 69.448-27.779 69.448s-27.779-31.093-27.779-69.448 12.437-69.448 27.779-69.448c12.606 0 23.632 21.22 26.855 51.687" fill="url(#a)"/>
  </g>
 </g>
</svg>
